<svg xmlns="http://www.w3.org/2000/svg" viewBox="0 0 1000 1000" width="1000" height="1000">
  <defs><filter id="sh" x="-20%" y="-20%" width="140%" height="140%"><feGaussianBlur stdDeviation="22"/></filter></defs>
  <rect width="1000" height="1000" fill="#3187DC"/>
  <rect x="250" y="292" width="520" height="540" rx="130" fill="#08284f" opacity=".35" filter="url(#sh)"/>
  <rect x="222" y="222" width="560" height="580" rx="140" fill="#B9861B"/>
  <rect x="240" y="206" width="560" height="580" rx="140" fill="#E8B53B"/>
  <rect x="276" y="242" width="488" height="508" rx="108" fill="#F5F0ED"/>
  <svg x="300" y="250" width="440" height="460" viewBox="0 0 100 100" fill="none" stroke="#0F8A43" stroke-width="6.5" stroke-linecap="round">
    <svg x="8" y="6" width="38" height="38" viewBox="0 0 40 40" style="stroke:none"><circle cx="20" cy="20" r="18" fill="#B9861B"/><circle cx="20" cy="19" r="17" fill="#E8B53B"/><circle cx="20" cy="19" r="12.5" fill="none" stroke="#F7D774" stroke-width="2"/><path d="M11 13 Q14 8 20 7" fill="none" stroke="#FFF3C4" stroke-width="2.4" stroke-linecap="round"/></svg>
    <path d="M46 96 Q44 70 64 40"/><path d="M55 96 Q57 72 38 54"/><path d="M68 94 Q72 72 90 58"/><path d="M30 96 Q27 80 14 70"/></svg>
</svg>